<svg width="23" height="23" viewBox="0 0 23 23" fill="none" xmlns="http://www.w3.org/2000/svg">
<path d="M22.0416 3.00964C21.1239 3.65697 20.1078 4.15208 19.0324 4.47589C18.4553 3.81225 17.6882 3.34188 16.835 3.1284C15.9818 2.91492 15.0836 2.96862 14.2619 3.28224C13.4402 3.59586 12.7347 4.15427 12.2407 4.88195C11.7467 5.60963 11.4881 6.47146 11.4999 7.35089V8.30922C9.81577 8.35289 8.14697 7.97937 6.64214 7.22194C5.1373 6.4645 3.84314 5.34666 2.87492 3.96797C2.87492 3.96797 -0.958415 12.593 7.66658 16.4263C5.69292 17.766 3.34178 18.4378 0.958252 18.343C9.58325 23.1346 20.1249 18.343 20.1249 7.32214C20.124 7.0552 20.0984 6.78892 20.0483 6.52672C21.0263 5.56215 21.7165 4.34432 22.0416 3.00964Z" fill="white"/>
</svg>
