<svg width="23" height="23" viewBox="0 0 23 23" fill="none" xmlns="http://www.w3.org/2000/svg">
<path d="M21.6008 6.15242C21.487 5.6976 21.2551 5.28088 20.9287 4.94435C20.6022 4.60782 20.1928 4.36339 19.7416 4.23575C18.0933 3.83325 11.5 3.83325 11.5 3.83325C11.5 3.83325 4.90664 3.83325 3.25831 4.27409C2.80717 4.40172 2.39771 4.64615 2.07127 4.98268C1.74483 5.31922 1.51298 5.73594 1.39914 6.19075C1.09748 7.86358 0.949913 9.56055 0.958311 11.2603C0.947558 12.9729 1.09513 14.6828 1.39914 16.3683C1.52465 16.8089 1.76169 17.2098 2.08737 17.5321C2.41304 17.8544 2.81635 18.0873 3.25831 18.2083C4.90664 18.6491 11.5 18.6491 11.5 18.6491C11.5 18.6491 18.0933 18.6491 19.7416 18.2083C20.1928 18.0806 20.6022 17.8362 20.9287 17.4997C21.2551 17.1631 21.487 16.7464 21.6008 16.2916C21.9002 14.6314 22.0477 12.9473 22.0416 11.2603C22.0524 9.54775 21.9048 7.83784 21.6008 6.15242Z" fill="white"/>
<path d="M9.34375 14.3942L14.8542 11.2605L9.34375 8.12671V14.3942Z" fill="white"/>
</svg>
